ply
format ascii 1.0
comment Created by Blender 2.77 (sub 0) - www.blender.org, source file: 'character.blend'
element vertex 289
property float x
property float y
property float z
property float nx
property float ny
property float nz
property float s
property float t
element face 427
property list uchar uint vertex_indices
end_header
-0.624926 -0.000000 7.122555 -0.000000 -1.000000 0.000000 0.436165 0.563947
-0.428516 -0.000000 7.527026 -0.000000 -1.000000 0.000000 0.455559 0.592730
-0.775499 -0.000000 7.476787 -0.000000 -1.000000 0.000000 0.421296 0.589155
-1.728412 0.000000 4.331868 0.000000 -1.000000 -0.000000 0.327199 0.365354
-2.164964 0.000000 4.023889 0.000000 -1.000000 -0.000000 0.284090 0.343437
-1.826593 0.000000 3.915373 0.000000 -1.000000 -0.000000 0.317503 0.335715
0.668474 -0.000000 5.801487 0.000000 -1.000000 -0.000000 0.563884 0.469936
0.408035 -0.000000 6.090864 0.000000 -1.000000 -0.000000 0.538166 0.490529
0.508692 -0.000000 5.659179 0.000000 -1.000000 -0.000000 0.548106 0.459809
0.686381 0.000000 2.862110 -0.000000 -1.000000 -0.000000 0.565652 0.260761
0.718081 0.000000 1.894905 -0.000000 -1.000000 -0.000000 0.568783 0.191932
0.969563 0.000000 2.067153 -0.000000 -1.000000 -0.000000 0.593616 0.204190
0.164132 -0.000000 5.590656 0.000000 -1.000000 -0.000000 0.514082 0.454933
0.320288 -0.000000 5.553607 0.000000 -1.000000 -0.000000 0.529502 0.452296
1.091107 0.000000 1.625727 -0.000000 -1.000000 -0.000000 0.605618 0.172777
0.924778 0.000001 0.861417 -0.000000 -1.000000 -0.000000 0.589193 0.118386
1.217600 0.000001 1.102564 -0.000000 -1.000000 -0.000000 0.618109 0.135547
1.388328 0.000001 0.924485 -0.000000 -1.000000 -0.000000 0.634968 0.122874
1.426573 0.000001 0.771212 -0.000000 -1.000000 -0.000000 0.638744 0.111967
1.566375 0.000001 0.886500 -0.000000 -1.000000 -0.000000 0.652549 0.120171
1.558601 0.000001 0.619413 -0.000000 -1.000000 -0.000000 0.651781 0.101165
1.550591 0.000001 0.337147 -0.000000 -1.000000 -0.000000 0.650991 0.081078
1.674241 0.000001 0.450128 -0.000000 -1.000000 -0.000000 0.663201 0.089118
1.756192 0.000001 0.211601 -0.000000 -1.000000 -0.000000 0.671293 0.072144
1.610416 0.000001 0.103893 -0.000000 -1.000000 -0.000000 0.656898 0.064479
1.803095 0.000001 -0.031201 -0.000000 -1.000000 -0.000000 0.675925 0.054865
1.410755 0.000001 0.487083 0.000000 -1.000000 -0.000000 0.637182 0.091748
1.175495 0.000001 0.749108 -0.000000 -1.000000 -0.000000 0.613951 0.110394
0.797263 0.000000 1.454354 0.000000 -1.000000 -0.000000 0.576602 0.160581
0.283306 0.000000 3.580531 -0.000000 -1.000000 -0.000000 0.525850 0.311886
0.421251 0.000000 2.662568 -0.000000 -1.000000 -0.000000 0.539472 0.246561
-2.131616 0.000000 2.524829 0.000000 -1.000000 -0.000000 0.287383 0.236760
-2.571661 0.000000 2.169831 0.000000 -1.000000 -0.000000 0.243930 0.211497
-2.233290 0.000000 2.061315 0.000000 -1.000000 -0.000000 0.277343 0.203775
-2.777881 0.000001 1.013997 -0.000000 -1.000000 -0.000000 0.223567 0.129244
-2.978452 0.000001 1.114013 -0.000000 -1.000000 -0.000000 0.203761 0.136362
-3.084901 0.000001 0.837729 -0.000000 -1.000000 -0.000000 0.193249 0.116701
-2.827929 0.000001 0.720748 -0.000000 -1.000000 -0.000000 0.218624 0.108376
-3.258991 0.000001 0.431818 -0.000000 -1.000000 -0.000000 0.176058 0.087815
-3.079123 0.000001 0.349936 -0.000000 -1.000000 -0.000000 0.193820 0.081988
-3.375690 0.000001 0.272334 0.000000 -1.000000 -0.000000 0.164535 0.076465
-3.272947 0.000001 0.176880 0.000000 -1.000000 -0.000000 0.174680 0.069673
-3.536788 0.000001 0.182496 0.000000 -1.000000 -0.000000 0.148627 0.070072
-2.450930 0.000000 1.658496 -0.000000 -1.000000 -0.000000 0.255852 0.175109
-2.872004 0.000000 1.390297 -0.000000 -1.000000 -0.000000 0.214272 0.156023
-2.599347 0.000001 1.248755 -0.000000 -1.000000 -0.000000 0.241196 0.145950
-2.721832 0.000000 1.780064 -0.000000 -1.000000 -0.000000 0.229101 0.183760
-2.266638 0.000000 3.560374 -0.000000 -1.000000 -0.000000 0.274050 0.310452
-1.928267 0.000000 3.451858 -0.000000 -1.000000 -0.000000 0.307463 0.302730
-2.368312 0.000000 3.096860 -0.000000 -1.000000 -0.000000 0.264010 0.277467
-2.029941 0.000000 2.988344 -0.000000 -1.000000 -0.000000 0.297423 0.269745
-2.469986 0.000000 2.633346 0.000000 -1.000000 -0.000000 0.253970 0.244482
-0.485932 -0.000000 7.972000 0.000000 -1.000000 -0.000000 0.449890 0.624396
-0.832915 -0.000000 7.921761 0.000000 -1.000000 -0.000000 0.415626 0.620821
-0.819889 -0.000000 8.400655 0.000000 -1.000000 -0.000000 0.416913 0.654900
-0.396615 -0.000000 8.547441 0.000000 -1.000000 -0.000000 0.458710 0.665346
-0.813376 -0.000000 8.640101 0.000000 -1.000000 -0.000000 0.417556 0.671940
-0.211468 -0.000000 8.806956 0.000000 -1.000000 -0.000000 0.476992 0.683814
-0.702860 -0.000000 8.909811 0.000000 -1.000000 -0.000000 0.428469 0.691133
-0.514373 -0.000000 9.307054 0.000000 -1.000000 -0.000000 0.447081 0.719402
0.068798 -0.000000 9.599281 0.000000 -1.000000 -0.000000 0.504668 0.740198
-0.325886 -0.000000 9.704296 0.000000 -1.000000 -0.000000 0.465694 0.747671
-0.025844 -0.000000 10.122804 -0.000000 -1.000000 -0.000000 0.495322 0.777453
-0.330145 -0.000000 10.145483 -0.000000 -1.000000 -0.000000 0.465273 0.779067
-0.082370 -0.000000 10.624987 -0.000000 -1.000000 -0.000000 0.489740 0.813190
-0.387117 -0.000000 10.640593 -0.000000 -1.000000 -0.000000 0.459648 0.814301
0.155213 -0.000000 10.824069 -0.000000 -1.000000 -0.000000 0.513201 0.827358
-0.160670 -0.000000 10.912381 -0.000000 -1.000000 -0.000000 0.482009 0.833642
-0.006117 -0.000001 11.215366 -0.000000 -1.000000 -0.000000 0.497270 0.855203
-0.212627 -0.000001 11.273101 -0.000000 -1.000000 -0.000000 0.476878 0.859312
-0.358475 -0.000001 11.503719 -0.000000 -1.000000 -0.000000 0.462476 0.875723
0.282731 -0.000000 8.743791 0.000000 -1.000000 -0.000000 0.525793 0.679319
0.085431 -0.000000 8.233609 0.000000 -1.000000 -0.000000 0.506310 0.643013
0.459763 -0.000000 8.514127 0.000000 -1.000000 -0.000000 0.543274 0.662975
1.107499 -0.000000 8.566409 0.000000 -1.000000 -0.000000 0.607237 0.666696
0.834096 -0.000000 8.794644 0.000000 -1.000000 -0.000000 0.580239 0.682938
1.026214 -0.000000 8.474427 0.000000 -1.000000 -0.000000 0.599210 0.660150
1.127691 0.000000 7.033642 -0.000000 -1.000000 -0.000000 0.609230 0.557620
1.794685 0.000000 7.193559 -0.000000 -1.000000 -0.000000 0.675094 0.569000
1.452834 -0.000000 7.401569 -0.000000 -1.000000 -0.000000 0.641337 0.583803
1.602567 -0.000000 7.513776 -0.000000 -1.000000 -0.000000 0.656123 0.591787
2.735955 0.000000 7.198631 -0.000000 -1.000000 -0.000000 0.768042 0.569361
2.973274 0.000000 6.641371 -0.000000 -1.000000 -0.000000 0.791476 0.529705
3.003376 0.000000 6.971212 -0.000000 -1.000000 -0.000000 0.794449 0.553177
3.446956 0.000000 6.569601 -0.000000 -1.000000 -0.000000 0.838251 0.524597
3.304810 0.000000 7.086044 -0.000000 -1.000000 -0.000000 0.824215 0.561349
3.224470 0.000000 6.390176 -0.000000 -1.000000 -0.000000 0.816281 0.511829
3.834514 0.000000 6.856681 0.000000 -1.000000 -0.000000 0.876521 0.545027
3.606244 0.000000 7.114752 0.000000 -1.000000 -0.000000 0.853980 0.563392
4.094280 -0.000000 7.468818 0.000000 -1.000000 -0.000000 0.902172 0.588588
4.566568 -0.000000 7.387779 0.000000 -1.000000 -0.000000 0.948810 0.582821
4.338298 -0.000000 7.645850 0.000000 -1.000000 -0.000000 0.926269 0.601186
-2.392348 -0.000000 9.213589 0.000000 -1.000000 -0.000000 0.261637 0.712751
-2.177038 -0.000000 9.218374 0.000000 -1.000000 -0.000000 0.282898 0.713092
-2.415135 -0.000000 9.560001 0.000000 -1.000000 -0.000000 0.259387 0.737403
-2.265917 -0.000000 10.382977 -0.000000 -1.000000 -0.000000 0.274121 0.795968
-2.891330 -0.000000 10.243257 -0.000000 -1.000000 -0.000000 0.212364 0.786025
-2.430867 -0.000000 10.168618 -0.000000 -1.000000 -0.000000 0.257833 0.780714
-2.542050 -0.000000 10.035124 -0.000000 -1.000000 -0.000000 0.246854 0.771214
-3.753772 -0.000001 11.475358 0.000000 -1.000000 -0.000000 0.127200 0.873705
-3.728211 -0.000001 11.947987 0.000000 -1.000000 -0.000000 0.129724 0.907339
-4.017540 -0.000001 11.816987 0.000000 -1.000000 -0.000000 0.101154 0.898016
-3.089241 -0.000000 10.480864 0.000000 -1.000000 -0.000000 0.192821 0.802934
-2.961136 -0.000000 11.043402 0.000000 -1.000000 -0.000000 0.205471 0.842966
-3.287150 -0.000000 10.718470 0.000000 -1.000000 -0.000000 0.173278 0.819843
-3.598231 -0.000001 11.223063 -0.000000 -1.000000 -0.000000 0.142559 0.855751
-3.503753 -0.000001 11.636534 -0.000000 -1.000000 -0.000000 0.151889 0.885175
-3.790085 -0.000001 12.299396 -0.000000 -1.000000 -0.000000 0.123614 0.932346
-4.300163 -0.000001 12.068447 -0.000000 -1.000000 -0.000000 0.073246 0.915911
-4.026808 -0.000001 12.517372 0.000000 -1.000000 -0.000000 0.100239 0.947858
-4.293103 -0.000001 12.281090 0.000000 -1.000000 -0.000000 0.073943 0.931043
-4.345275 -0.000001 12.805311 0.000000 -1.000000 -0.000000 0.068791 0.968348
-4.548796 -0.000001 12.624727 0.000000 -1.000000 -0.000000 0.048694 0.955498
-4.612536 -0.000001 12.267847 0.000000 -1.000000 -0.000000 0.042400 0.930101
-4.615270 -0.000001 12.185524 0.000000 -1.000000 -0.000000 0.042130 0.924243
-0.173206 -0.000000 6.059859 -0.000000 -1.000000 0.000000 0.480771 0.488323
0.198897 -0.000000 6.449904 -0.000000 -1.000000 0.000000 0.517515 0.516079
-0.323779 -0.000000 6.414091 -0.000000 -1.000000 0.000000 0.465902 0.513531
-0.010241 -0.000000 6.808945 -0.000000 -1.000000 0.000000 0.496863 0.541630
-0.474352 -0.000000 6.768323 -0.000000 -1.000000 0.000000 0.451033 0.538739
-0.219378 -0.000000 7.167985 -0.000000 -1.000000 0.000000 0.476211 0.567180
0.597312 0.000000 3.756485 -0.000000 -1.000000 -0.000000 0.556857 0.324408
0.810662 0.000000 4.364124 -0.000000 -1.000000 -0.000000 0.577925 0.367649
0.559457 0.000000 4.223361 -0.000000 -1.000000 -0.000000 0.553119 0.357632
0.710005 0.000000 4.795809 -0.000000 -1.000000 -0.000000 0.567985 0.398369
0.144793 0.000000 4.479092 -0.000000 -1.000000 -0.000000 0.512172 0.375831
0.609349 -0.000000 5.227494 -0.000000 -1.000000 -0.000000 0.558046 0.429089
0.232540 0.000000 5.016349 -0.000000 -1.000000 -0.000000 0.520837 0.414063
-0.811481 0.000000 3.589824 0.000000 -1.000000 -0.000000 0.417743 0.312548
0.057046 0.000000 3.941834 0.000000 -1.000000 -0.000000 0.503507 0.337598
-0.567578 0.000000 4.090032 0.000000 -1.000000 -0.000000 0.441828 0.348144
-0.323675 0.000000 4.590240 -0.000000 -1.000000 -0.000000 0.465912 0.383740
-0.079771 -0.000000 5.090448 0.000000 -1.000000 -0.000000 0.489997 0.419336
1.710229 0.000000 4.643981 0.000000 -1.000000 -0.000000 0.666754 0.387565
0.911319 0.000000 3.932440 0.000000 -1.000000 -0.000000 0.587864 0.336929
1.449790 0.000000 4.933358 -0.000000 -1.000000 -0.000000 0.641037 0.408157
1.189351 -0.000000 5.222734 0.000000 -1.000000 -0.000000 0.615319 0.428750
0.928912 -0.000000 5.512111 -0.000000 -1.000000 -0.000000 0.589602 0.449343
-1.335687 -0.000000 5.997850 -0.000000 -1.000000 -0.000000 0.365979 0.483910
-1.966534 -0.000000 5.578254 -0.000000 -1.000000 -0.000000 0.303685 0.454050
-1.433868 -0.000000 5.581355 -0.000000 -1.000000 -0.000000 0.356284 0.454271
-2.016142 -0.000000 5.189663 -0.000000 -1.000000 -0.000000 0.298786 0.426397
-1.532049 -0.000000 5.164859 -0.000000 -1.000000 -0.000000 0.346589 0.424632
-2.065749 0.000000 4.801071 0.000000 -1.000000 -0.000000 0.293887 0.398744
-1.630231 0.000000 4.748363 0.000000 -1.000000 -0.000000 0.336894 0.394993
-2.115356 0.000000 4.412480 -0.000000 -1.000000 -0.000000 0.288989 0.371090
0.427281 -0.000000 8.025599 0.000000 -1.000000 -0.000000 0.540067 0.628210
0.769132 -0.000000 7.817589 -0.000000 -1.000000 -0.000000 0.573824 0.613408
1.218331 -0.000000 8.154210 -0.000000 -1.000000 -0.000000 0.618181 0.637363
1.110983 -0.000000 7.609579 -0.000000 -1.000000 -0.000000 0.607581 0.598605
1.410449 -0.000000 7.833993 -0.000000 -1.000000 -0.000000 0.637152 0.614575
0.345996 -0.000000 7.933618 0.000000 -1.000000 -0.000000 0.532040 0.621665
0.606561 -0.000000 7.633626 -0.000000 -1.000000 -0.000000 0.557770 0.600316
0.867126 0.000000 7.333634 0.000000 -1.000000 -0.000000 0.583500 0.578968
2.201114 -0.000000 7.653468 -0.000000 -1.000000 -0.000000 0.715228 0.601728
1.927710 -0.000000 7.881703 0.000000 -1.000000 -0.000000 0.688230 0.617970
1.654306 -0.000000 8.109939 0.000000 -1.000000 -0.000000 0.661232 0.634212
1.380903 -0.000000 8.338174 0.000000 -1.000000 -0.000000 0.634234 0.650454
2.187548 0.000000 7.009497 0.000000 -1.000000 -0.000000 0.713888 0.555901
2.468534 -0.000000 7.426050 0.000000 -1.000000 -0.000000 0.741635 0.585545
2.580411 0.000000 6.825434 0.000000 -1.000000 -0.000000 0.752682 0.542803
4.078532 0.000000 7.033714 0.000000 -1.000000 -0.000000 0.900617 0.557625
3.850262 0.000000 7.291785 0.000000 -1.000000 -0.000000 0.878076 0.575990
4.322550 0.000000 7.210747 0.000000 -1.000000 -0.000000 0.924713 0.570223
2.801027 0.000000 6.454769 0.000000 -1.000000 -0.000000 0.774467 0.516425
3.001983 0.000000 6.210752 0.000000 -1.000000 -0.000000 0.794311 0.499060
-0.456160 -0.000000 8.163814 -0.000000 -1.000000 -0.000000 0.452830 0.638046
-0.826402 -0.000000 8.161208 -0.000000 -1.000000 -0.000000 0.416269 0.637861
-0.426387 -0.000000 8.355627 -0.000000 -1.000000 -0.000000 0.455770 0.651696
-0.071335 -0.000000 9.203118 -0.000000 -1.000000 -0.000000 0.490830 0.712006
-0.112502 -0.000000 8.615841 -0.000000 -1.000000 -0.000000 0.486765 0.670214
0.105698 -0.000000 8.973454 -0.000000 -1.000000 -0.000000 0.508312 0.695662
-0.013535 -0.000000 8.424725 0.000000 -1.000000 -0.000000 0.496538 0.656613
0.323897 -0.000000 9.331069 0.000000 -1.000000 -0.000000 0.529858 0.721111
0.578997 -0.000000 9.062857 0.000000 -1.000000 -0.000000 0.555048 0.702025
-2.653233 -0.000000 9.901628 0.000000 -1.000000 -0.000000 0.235875 0.761714
-1.400450 -0.000000 9.514923 -0.000000 -1.000000 -0.000000 0.359584 0.734195
-1.843489 -0.000000 9.618858 -0.000000 -1.000000 -0.000000 0.315835 0.741591
-1.685645 -0.000000 9.115520 -0.000000 -1.000000 -0.000000 0.331422 0.705772
-0.957412 -0.000000 9.410988 -0.000000 -1.000000 -0.000000 0.403333 0.726799
-1.194253 -0.000000 9.012665 0.000000 -1.000000 -0.000000 0.379945 0.698453
-1.937130 -0.000000 8.153390 0.000000 -1.000000 -0.000000 0.306588 0.637304
-1.606893 -0.000000 8.490709 0.000000 -1.000000 -0.000000 0.339198 0.661309
-2.000395 -0.000000 8.535736 0.000000 -1.000000 -0.000000 0.300341 0.664513
-1.566888 -0.000000 8.155996 0.000000 -1.000000 -0.000000 0.343149 0.637490
-1.213391 -0.000000 8.445683 0.000000 -1.000000 -0.000000 0.378055 0.658105
-1.196645 -0.000000 8.158602 -0.000000 -1.000000 -0.000000 0.379709 0.637675
-1.873865 -0.000000 7.771044 0.000000 -1.000000 -0.000000 0.312835 0.610095
-1.526882 -0.000000 7.821283 -0.000000 -1.000000 -0.000000 0.347099 0.613671
-1.179899 -0.000000 7.871522 0.000000 -1.000000 -0.000000 0.381363 0.617246
-0.954522 0.000000 4.170644 0.000000 -1.000000 -0.000000 0.403618 0.353881
-0.759193 0.000000 4.642948 -0.000000 -1.000000 -0.000000 0.422906 0.387491
-1.341467 0.000000 4.251256 -0.000000 -1.000000 -0.000000 0.365408 0.359617
-1.194712 0.000000 4.695656 -0.000000 -1.000000 -0.000000 0.379900 0.391242
-0.563864 -0.000000 5.115252 0.000000 -1.000000 -0.000000 0.442194 0.421102
-1.047957 -0.000000 5.140056 0.000000 -1.000000 -0.000000 0.394392 0.422867
-0.368535 -0.000000 5.587555 -0.000000 -1.000000 -0.000000 0.461482 0.454712
-0.901201 -0.000000 5.584455 0.000000 -1.000000 -0.000000 0.408883 0.454491
-0.754446 -0.000000 6.028855 -0.000000 -1.000000 -0.000000 0.423375 0.486116
-1.866688 -0.000000 6.646458 -0.000000 -1.000000 0.000000 0.313544 0.530067
-1.436021 -0.000000 7.031694 -0.000000 -1.000000 0.000000 0.356071 0.557481
-1.841568 -0.000000 6.986264 -0.000000 -1.000000 0.000000 0.316025 0.554248
-1.402576 -0.000000 6.687079 -0.000000 -1.000000 0.000000 0.359374 0.532957
-1.030473 -0.000000 7.077125 -0.000000 -1.000000 0.000000 0.396118 0.560714
-0.938464 -0.000000 6.727701 -0.000000 -1.000000 0.000000 0.405204 0.535848
-1.891808 -0.000000 6.306652 -0.000000 -1.000000 0.000000 0.311064 0.505885
-1.369131 -0.000000 6.342465 -0.000000 -1.000000 0.000000 0.362676 0.508434
-0.846455 -0.000000 6.378278 -0.000000 -1.000000 0.000000 0.414289 0.510982
-1.916927 -0.000000 5.966846 -0.000000 -1.000000 0.000000 0.308583 0.481703
-0.832157 -0.000001 11.446304 -0.000000 -1.000000 -0.000000 0.415701 0.871638
-0.625647 -0.000001 11.388570 -0.000000 -1.000000 -0.000000 0.436093 0.867529
-0.419137 -0.000001 11.330835 -0.000000 -1.000000 -0.000000 0.456486 0.863420
-1.108319 -0.000001 11.177317 0.000000 -1.000000 -0.000000 0.388431 0.852496
-0.792436 -0.000001 11.089005 0.000000 -1.000000 -0.000000 0.419623 0.846211
-0.476553 -0.000000 11.000693 0.000000 -1.000000 -0.000000 0.450816 0.839927
-1.301355 -0.000000 10.687407 0.000000 -1.000000 -0.000000 0.369369 0.817632
-0.996609 -0.000000 10.671803 0.000000 -1.000000 -0.000000 0.399462 0.816522
-0.691863 -0.000000 10.656197 0.000000 -1.000000 -0.000000 0.429555 0.815411
-1.243050 -0.000000 10.213520 0.000000 -1.000000 -0.000000 0.375127 0.783909
-0.938748 -0.000000 10.190841 -0.000000 -1.000000 -0.000000 0.405176 0.782295
-0.634447 -0.000000 10.168161 0.000000 -1.000000 -0.000000 0.435224 0.780681
-1.509940 -0.000000 10.019342 -0.000000 -1.000000 -0.000000 0.348772 0.770091
-1.115255 -0.000000 9.914327 -0.000000 -1.000000 -0.000000 0.387746 0.762618
-0.720571 -0.000000 9.809312 0.000000 -1.000000 -0.000000 0.426720 0.755144
-2.063661 -0.000000 8.918082 0.000000 -1.000000 -0.000000 0.294094 0.691722
-1.646899 -0.000000 8.825422 -0.000000 -1.000000 -0.000000 0.335248 0.685128
-1.230138 -0.000000 8.732761 0.000000 -1.000000 -0.000000 0.376402 0.678534
-1.816449 0.000000 7.326070 0.000000 -1.000000 -0.000000 0.318505 0.578430
-1.469466 -0.000000 7.376309 -0.000000 -1.000000 -0.000000 0.352769 0.582005
-1.122483 -0.000000 7.426548 0.000000 -1.000000 -0.000000 0.387032 0.585580
-1.014829 0.000000 2.662795 -0.000000 -1.000000 -0.000000 0.397663 0.246578
-1.454874 0.000000 2.307797 -0.000000 -1.000000 -0.000000 0.354210 0.221315
-1.116503 0.000000 2.199281 -0.000000 -1.000000 -0.000000 0.387623 0.213593
-1.353200 0.000000 2.771311 -0.000000 -1.000000 -0.000000 0.364250 0.254300
-1.793245 0.000000 2.416313 -0.000000 -1.000000 -0.000000 0.320796 0.229037
-1.691571 0.000000 2.879828 0.000000 -1.000000 -0.000000 0.330837 0.262022
-0.913155 0.000000 3.126309 -0.000000 -1.000000 -0.000000 0.407703 0.279563
-1.251526 0.000000 3.234826 -0.000000 -1.000000 -0.000000 0.374290 0.287285
-1.589896 0.000000 3.343342 -0.000000 -1.000000 -0.000000 0.340877 0.295007
-1.149852 0.000000 3.698340 -0.000000 -1.000000 -0.000000 0.384330 0.320270
-1.488222 0.000000 3.806856 -0.000000 -1.000000 -0.000000 0.350917 0.327992
-1.781377 0.000001 0.824129 0.000000 -1.000000 -0.000000 0.321968 0.115733
-2.376738 0.000001 0.813964 0.000000 -1.000000 -0.000000 0.263178 0.115009
-2.176167 0.000001 0.713947 0.000000 -1.000000 -0.000000 0.282984 0.107892
-2.054034 0.000001 0.965671 0.000000 -1.000000 -0.000000 0.295044 0.125805
-2.577310 0.000001 0.913980 0.000000 -1.000000 -0.000000 0.243372 0.122127
-2.326691 0.000001 1.107213 -0.000000 -1.000000 -0.000000 0.268120 0.135878
-1.218177 0.000000 1.735766 0.000000 -1.000000 -0.000000 0.377583 0.180608
-1.909125 0.000000 1.415359 0.000000 -1.000000 -0.000000 0.309354 0.157806
-1.638222 0.000001 1.293792 0.000000 -1.000000 -0.000000 0.336105 0.149155
-1.556548 0.000000 1.844283 0.000000 -1.000000 -0.000000 0.344170 0.188330
-2.180027 0.000000 1.536928 0.000000 -1.000000 -0.000000 0.282603 0.166458
-1.894919 0.000000 1.952799 0.000000 -1.000000 -0.000000 0.310756 0.196052
-2.570956 0.000001 0.603766 -0.000000 -1.000000 -0.000000 0.244000 0.100051
0.308251 0.000000 4.082598 -0.000000 -1.000000 -0.000000 0.528313 0.347615
-0.030701 0.000000 3.404577 -0.000000 -1.000000 -0.000000 0.494843 0.299365
0.951510 0.000000 3.061653 0.000000 -1.000000 -0.000000 0.591833 0.274961
1.216639 0.000000 3.261195 0.000000 -1.000000 -0.000000 0.618014 0.289162
1.472527 0.000000 2.411648 0.000000 -1.000000 -0.000000 0.643282 0.228705
1.384950 0.000000 1.797100 0.000000 -1.000000 -0.000000 0.634634 0.184972
1.678794 0.000000 1.968473 0.000000 -1.000000 -0.000000 0.663650 0.197168
1.221045 0.000000 2.239400 -0.000000 -1.000000 -0.000000 0.618449 0.216448
1.803243 0.000000 1.584858 -0.000000 -1.000000 -0.000000 0.675939 0.169869
1.510422 0.000001 1.343711 -0.000000 -1.000000 -0.000000 0.647024 0.152708
1.813995 0.000001 1.275237 -0.000000 -1.000000 -0.000000 0.677001 0.147835
1.601162 0.000001 1.099861 -0.000000 -1.000000 -0.000000 0.655984 0.135355
1.845979 0.000001 1.117077 0.000000 -1.000000 -0.000000 0.680159 0.136580
1.706446 0.000001 0.751743 0.000000 -1.000000 -0.000000 0.666381 0.110582
1.854292 0.000001 0.884074 0.000000 -1.000000 -0.000000 0.680980 0.119999
1.706177 0.000001 1.001789 0.000000 -1.000000 -0.000000 0.666354 0.128376
1.921541 0.000001 0.676090 -0.000000 -1.000000 -0.000000 0.687621 0.105198
1.901968 0.000001 0.319309 -0.000000 -1.000000 -0.000000 0.685688 0.079808
2.047744 0.000001 0.427018 -0.000000 -1.000000 -0.000000 0.700083 0.087473
1.797891 0.000001 0.563109 -0.000000 -1.000000 -0.000000 0.675411 0.097158
2.041093 0.000001 0.079785 -0.000000 -1.000000 -0.000000 0.699426 0.062763
-3.170203 0.000001 0.081426 0.000000 -1.000000 -0.000000 0.184826 0.062880
-3.465975 0.000001 0.060508 0.000000 -1.000000 -0.000000 0.155619 0.061391
-2.899256 0.000001 0.268055 -0.000000 -1.000000 -0.000000 0.211581 0.076161
-3.142009 -0.000001 11.241112 -0.000000 -1.000000 -0.000000 0.187610 0.857036
-3.442691 -0.000000 10.970766 -0.000000 -1.000000 -0.000000 0.157918 0.837797
-3.322881 -0.000001 11.438823 -0.000000 -1.000000 -0.000000 0.169749 0.871105
-2.802521 -0.000000 10.804098 -0.000000 -1.000000 -0.000000 0.221133 0.825936
-2.192769 -0.000000 9.826991 0.000000 -1.000000 -0.000000 0.281345 0.756402
-1.970403 -0.000000 10.093981 0.000000 -1.000000 -0.000000 0.303303 0.775402
-1.887928 -0.000000 10.201159 -0.000000 -1.000000 -0.000000 0.311447 0.783029
-2.822968 -0.000000 9.204020 -0.000000 -1.000000 -0.000000 0.219114 0.712070
-2.607658 -0.000000 9.208804 0.000000 -1.000000 -0.000000 0.240376 0.712411
1.388256 0.000000 6.733650 -0.000000 -1.000000 -0.000000 0.634960 0.536271
-2.643905 -0.000000 10.564795 -0.000000 -1.000000 -0.000000 0.236796 0.808907
3 0 1 2
3 3 4 5
3 6 7 8
3 9 10 11
3 12 13 7
3 13 8 7
3 14 15 16
3 17 18 19
3 20 21 22
3 23 24 25
3 22 24 23
3 19 26 20
3 16 15 27
3 11 28 14
3 29 30 9
3 31 32 33
3 34 35 36
3 37 38 39
3 39 40 41
3 41 40 42
3 43 44 45
3 33 46 43
3 45 35 34
3 5 47 48
3 48 49 50
3 50 51 31
3 2 52 53
3 54 55 56
3 56 57 58
3 59 60 61
3 61 62 63
3 63 64 65
3 65 66 67
3 67 68 69
3 69 68 70
3 71 72 73
3 74 75 76
3 77 78 79
3 80 79 78
3 81 82 83
3 83 84 85
3 84 82 86
3 85 87 88
3 89 90 91
3 92 93 94
3 95 96 97
3 98 97 96
3 99 100 101
3 102 103 104
3 105 106 99
3 101 107 108
3 108 109 110
3 110 111 112
3 108 113 114
3 115 116 117
3 117 118 119
3 119 120 0
3 121 122 123
3 123 122 124
3 125 126 127
3 127 8 13
3 128 129 130
3 130 125 131
3 131 127 132
3 132 13 12
3 133 122 134
3 135 124 122
3 136 126 124
3 137 8 126
3 138 139 140
3 140 141 142
3 142 143 144
3 144 145 3
3 73 72 146
3 76 147 148
3 148 149 150
3 150 79 80
3 72 151 146
3 151 147 146
3 152 149 147
3 153 79 149
3 154 80 78
3 155 150 80
3 156 148 150
3 157 76 148
3 154 158 159
3 159 160 81
3 88 161 162
3 162 163 89
3 86 164 165
3 82 164 86
3 53 166 167
3 167 168 54
3 169 170 171
3 171 172 71
3 173 71 174
3 60 171 173
3 75 73 76
3 76 73 146
3 175 98 96
3 174 73 75
3 58 169 59
3 93 176 177
3 178 179 176
3 180 59 179
3 181 182 183
3 184 185 182
3 186 54 185
3 187 184 181
3 188 186 184
3 189 167 186
3 131 190 130
3 191 192 190
3 193 3 192
3 132 191 131
3 194 193 191
3 195 144 193
3 12 194 132
3 196 195 194
3 197 142 195
3 7 196 12
3 115 197 196
3 198 140 197
3 199 200 201
3 202 203 200
3 204 0 203
3 205 202 199
3 206 204 202
3 207 119 204
3 208 206 205
3 138 207 206
3 198 117 207
3 209 210 70
3 210 211 70
3 211 69 70
3 212 210 209
3 213 211 210
3 214 69 211
3 215 213 212
3 216 214 213
3 217 67 214
3 218 216 215
3 219 217 216
3 220 65 217
3 221 219 218
3 222 220 219
3 223 63 220
3 177 222 221
3 176 223 222
3 179 61 223
3 224 178 93
3 225 180 178
3 226 58 180
3 183 225 224
3 182 226 225
3 185 56 226
3 227 188 187
3 228 189 188
3 229 53 189
3 230 231 232
3 233 234 231
3 235 31 234
3 236 233 230
3 237 235 233
3 238 50 235
3 128 237 236
3 239 238 237
3 240 48 238
3 241 242 243
3 244 245 242
3 246 34 245
3 247 248 249
3 250 251 248
3 252 43 251
3 249 244 241
3 248 246 244
3 251 45 246
3 243 242 253
3 242 245 253
3 253 245 37
3 245 34 36
3 232 250 247
3 231 252 250
3 234 33 252
3 130 239 128
3 190 240 239
3 192 5 240
3 201 228 227
3 200 229 228
3 203 2 229
3 129 254 125
3 254 124 125
3 255 254 129
3 29 123 254
3 134 256 257
3 121 9 256
3 258 259 260
3 261 14 259
3 262 263 264
3 264 263 265
3 260 263 262
3 259 16 263
3 257 261 258
3 256 11 261
3 16 27 17
3 263 17 265
3 266 267 268
3 269 20 267
3 270 271 272
3 273 23 271
3 272 271 274
3 271 25 274
3 268 273 270
3 267 22 273
3 264 269 266
3 265 19 269
3 245 36 37
3 275 41 276
3 276 41 42
3 277 41 275
3 253 39 277
3 104 278 279
3 279 280 105
3 96 281 102
3 93 282 94
3 94 98 175
3 177 283 282
3 282 97 98
3 221 284 283
3 284 97 283
3 285 175 96
3 286 94 175
3 0 120 1
3 3 145 4
3 9 30 10
3 14 28 15
3 17 27 18
3 20 26 21
3 22 21 24
3 19 18 26
3 11 10 28
3 29 255 30
3 31 51 32
3 37 36 38
3 39 38 40
3 43 46 44
3 33 32 46
3 45 44 35
3 5 4 47
3 48 47 49
3 50 49 51
3 2 1 52
3 54 168 55
3 56 55 57
3 59 169 60
3 61 60 62
3 63 62 64
3 65 64 66
3 67 66 68
3 71 172 72
3 77 287 78
3 81 160 82
3 83 82 84
3 85 84 87
3 89 163 90
3 95 288 96
3 99 106 100
3 102 281 103
3 105 280 106
3 101 100 107
3 108 107 109
3 110 109 111
3 108 110 113
3 115 7 116
3 117 116 118
3 119 118 120
3 121 134 122
3 125 124 126
3 127 126 8
3 128 255 129
3 130 129 125
3 131 125 127
3 132 127 13
3 133 135 122
3 135 136 124
3 136 137 126
3 137 6 8
3 138 208 139
3 140 139 141
3 142 141 143
3 144 143 145
3 76 146 147
3 148 147 149
3 150 149 79
3 151 152 147
3 152 153 149
3 153 77 79
3 154 155 80
3 155 156 150
3 156 157 148
3 157 74 76
3 154 78 158
3 159 158 160
3 88 87 161
3 162 161 163
3 53 52 166
3 167 166 168
3 169 57 170
3 171 170 172
3 173 171 71
3 60 169 171
3 174 71 73
3 58 57 169
3 93 178 176
3 178 180 179
3 180 58 59
3 181 184 182
3 184 186 185
3 186 167 54
3 187 188 184
3 188 189 186
3 189 53 167
3 131 191 190
3 191 193 192
3 193 144 3
3 132 194 191
3 194 195 193
3 195 142 144
3 12 196 194
3 196 197 195
3 197 140 142
3 7 115 196
3 115 198 197
3 198 138 140
3 199 202 200
3 202 204 203
3 204 119 0
3 205 206 202
3 206 207 204
3 207 117 119
3 208 138 206
3 138 198 207
3 198 115 117
3 212 213 210
3 213 214 211
3 214 67 69
3 215 216 213
3 216 217 214
3 217 65 67
3 218 219 216
3 219 220 217
3 220 63 65
3 221 222 219
3 222 223 220
3 223 61 63
3 177 176 222
3 176 179 223
3 179 59 61
3 224 225 178
3 225 226 180
3 226 56 58
3 183 182 225
3 182 185 226
3 185 54 56
3 227 228 188
3 228 229 189
3 229 2 53
3 230 233 231
3 233 235 234
3 235 50 31
3 236 237 233
3 237 238 235
3 238 48 50
3 128 239 237
3 239 240 238
3 240 5 48
3 241 244 242
3 244 246 245
3 246 45 34
3 247 250 248
3 250 252 251
3 252 33 43
3 249 248 244
3 248 251 246
3 251 43 45
3 232 231 250
3 231 234 252
3 234 31 33
3 130 190 239
3 190 192 240
3 192 3 5
3 201 200 228
3 200 203 229
3 203 0 2
3 254 123 124
3 255 29 254
3 29 121 123
3 134 121 256
3 121 29 9
3 258 261 259
3 261 11 14
3 260 259 263
3 259 14 16
3 257 256 261
3 256 9 11
3 263 16 17
3 266 269 267
3 269 19 20
3 270 273 271
3 273 22 23
3 271 23 25
3 268 267 273
3 267 20 22
3 264 265 269
3 265 17 19
3 277 39 41
3 253 37 39
3 104 103 278
3 279 278 280
3 96 288 281
3 93 177 282
3 94 282 98
3 177 221 283
3 282 283 97
3 284 95 97
3 285 286 175
3 286 92 94
